<svg width="121" height="45" xmlns="http://www.w3.org/2000/svg">
  <g>
    <g transform="translate(-769 -6104.92)" id="svg_13">
      <g transform="translate(960.5 8021.16)" id="svg_21">
        <path stroke-miterlimit="10" stroke-width="3" stroke="#04246A" fill="none"
          d="m-145.87777,-1877.06216l-9.3,3c-0.5,0.2 -0.9,-0.1 -1.1,-0.5c0,-0.1 -0.1,-0.2 0,-0.3l3.7,-14.6l-22.9,7.4l-4.5,2.1l-3.5,-1.3l0.5,-4.5l-6.6,-9c-0.3,-0.4 -0.1,-1 0.3,-1.2c0.1,0 0.1,-0.1 0.2,-0.1l6.9,-1.9c0.3,-0.1 0.7,0 0.9,0.2l5.8,6.2l20.3,-7.3l-13,-11.1c-0.2,-0.2 -0.3,-0.5 -0.2,-0.8c0.1,-0.3 0.3,-0.5 0.6,-0.6l7.3,-2.4c0.2,-0.1 0.5,-0.1 0.7,0.1l21,8.7l9.4,-2.5c12.8,-3.2 18.1,-0.9 19,1.8c1.3,4 -8.2,7.3 -16.5,10.2c0,0 -4.8,1.7 -6.9,2.4c0,0 -11.3,15.3 -11.4,15.5c-0.2,0.2 -0.4,0.4 -0.7,0.5z"
          class="st0" id="svg_23" />
        <line stroke-miterlimit="10" stroke-width="3" stroke="#04246A" fill="none" y2="-1901.66216" x2="-148.97777"
          y1="-1904.96216" x1="-138.87777" class="st0" id="svg_22" />
      </g>
      <g transform="translate(1016 8050.57)" id="svg_14">
        <path fill="#04246A"
          d="m-180.47777,-1903.66216l-1.8,0l0,2.4l-2.2,0l0,-2.4l-5.4,0l0,-1.7l5.8,-8.3l1.8,0l0,8.2l1.7,0l0,1.8l0.1,0zm-4,-1.7l0,-4.7l-3.3,4.7l3.3,0z"
          class="st1" id="svg_20" />
        <path fill="#04246A"
          d="m-170.67777,-1906.46216c0.4,0.6 0.6,1.2 0.6,1.9c0,1 -0.4,2 -1.2,2.6c-2.1,1.2 -4.7,1.2 -6.8,0c-0.8,-0.6 -1.3,-1.6 -1.2,-2.6c0,-0.7 0.2,-1.4 0.6,-1.9c0.4,-0.5 1,-0.9 1.7,-1.1c-0.6,-0.2 -1.1,-0.6 -1.5,-1.1c-0.4,-0.5 -0.5,-1.1 -0.5,-1.7c0,-1 0.4,-1.9 1.2,-2.4c2,-1.2 4.4,-1.2 6.4,0c0.8,0.6 1.2,1.5 1.2,2.4c0,0.6 -0.2,1.3 -0.5,1.8c-0.4,0.5 -0.9,0.9 -1.4,1.1c0.4,0 1,0.4 1.4,1zm-1.6,1.7c0,-1.3 -0.8,-1.9 -2.5,-1.9c-1.7,0 -2.5,0.6 -2.5,1.9c0,1.3 0.8,1.9 2.5,1.9s2.5,-0.6 2.5,-1.9zm-4.7,-5.4c0,0.5 0.2,1 0.6,1.4c1,0.6 2.3,0.6 3.3,0c0.4,-0.3 0.6,-0.8 0.6,-1.4c0,-1.2 -0.7,-1.8 -2.2,-1.8s-2.3,0.6 -2.3,1.8l0,0z"
          class="st1" id="svg_19" />
        <path fill="#04246A" d="m-168.27777,-1906.76216l5.2,0l0,1.7l-5.2,0l0,-1.7z" class="st1" id="svg_18" />
        <path fill="#04246A"
          d="m-153.37777,-1912.16216c0.9,1.3 1.4,2.9 1.3,4.5c0,1.2 -0.2,2.4 -0.6,3.5c-0.3,0.9 -1,1.7 -1.7,2.3c-0.8,0.5 -1.7,0.8 -2.7,0.8c-0.7,0 -1.5,-0.1 -2.2,-0.4c-0.7,-0.2 -1.3,-0.6 -1.8,-1.1l0.8,-1.7c0.9,0.8 2,1.2 3.1,1.3c0.9,0 1.7,-0.4 2.1,-1.2c0.6,-1 0.8,-2.2 0.8,-3.4c-0.3,0.5 -0.7,1 -1.2,1.3c-0.6,0.3 -1.2,0.5 -1.8,0.5c-0.7,0 -1.4,-0.2 -2,-0.5c-0.6,-0.3 -1,-0.8 -1.3,-1.4c-0.3,-0.6 -0.5,-1.3 -0.5,-2.1c0,-0.7 0.2,-1.5 0.5,-2.1c0.3,-0.6 0.9,-1.1 1.5,-1.5c0.7,-0.4 1.4,-0.5 2.1,-0.5c1.4,0 2.7,0.6 3.6,1.7zm-1.9,4.1c0.8,-0.9 0.8,-2.3 0,-3.3c-0.4,-0.4 -1,-0.6 -1.6,-0.6c-0.6,0 -1.1,0.2 -1.5,0.6c-0.4,0.5 -0.6,1 -0.6,1.6c0,0.6 0.2,1.2 0.6,1.6c0.4,0.4 1,0.6 1.5,0.6c0.6,0.1 1.2,-0.1 1.6,-0.5l0,0z"
          class="st1" id="svg_17" />
        <path fill="#04246A"
          d="m-143.27777,-1908.66216c0.6,0.3 1,0.8 1.3,1.4c0.7,1.3 0.6,2.9 0,4.2c-0.3,0.6 -0.9,1.1 -1.5,1.5c-0.7,0.4 -1.4,0.5 -2.1,0.5c-1.4,0.1 -2.7,-0.5 -3.6,-1.6c-0.9,-1.3 -1.4,-2.9 -1.3,-4.5c0,-1.2 0.2,-2.4 0.6,-3.5c0.3,-0.9 1,-1.7 1.8,-2.3c0.8,-0.5 1.7,-0.8 2.7,-0.8c0.7,0 1.5,0.1 2.2,0.4c0.7,0.2 1.3,0.6 1.8,1.1l-0.8,1.7c-0.9,-0.8 -2,-1.2 -3.1,-1.3c-0.9,0 -1.7,0.4 -2.1,1.2c-0.6,1 -0.8,2.2 -0.8,3.3c0.3,-0.5 0.7,-1 1.2,-1.2c0.6,-0.3 1.2,-0.5 1.8,-0.4c0.6,-0.2 1.3,0 1.9,0.3zm-0.9,5.2c0.4,-0.5 0.6,-1 0.6,-1.7c0,-0.6 -0.2,-1.2 -0.6,-1.6c-0.4,-0.4 -1,-0.6 -1.5,-0.6c-0.6,0 -1.2,0.2 -1.6,0.6c-0.4,0.4 -0.6,1 -0.6,1.6c0,0.6 0.2,1.2 0.6,1.6c0.4,0.4 1,0.6 1.6,0.6c0.5,0.1 1.1,-0.1 1.5,-0.5l0,0z"
          class="st1" id="svg_16" />
        <path fill="#04246A"
          d="m-127.57777,-1909.16216c0.6,0.8 0.8,1.7 0.8,2.7l0,5.3l-2.2,0l0,-5.1c0,-0.5 -0.1,-1 -0.4,-1.5c-0.3,-0.3 -0.7,-0.5 -1.2,-0.5c-0.6,0 -1.1,0.2 -1.5,0.6c-0.4,0.4 -0.6,1 -0.6,1.6l0,4.9l-2.2,0l0,-12.4l2.2,0l0,5c0.3,-0.4 0.7,-0.8 1.2,-1c0.5,-0.2 1.1,-0.4 1.6,-0.4c0.9,-0.1 1.7,0.2 2.3,0.8z"
          class="st1" id="svg_15" />
      </g>
    </g>
  </g>
</svg>
