<svg width="100" height="45" xmlns="http://www.w3.org/2000/svg">
  <g>
    <g transform="translate(-769 -6104.92)" id="svg_3">
      <g transform="translate(826.5 8021.16)" id="svg_9">
        <path stroke-miterlimit="10" stroke-width="3" stroke="#04246A" fill="none"
          d="m-12.20075,-1877.77861l-9.3,3c-0.5,0.2 -0.9,-0.1 -1.1,-0.5c0,-0.1 -0.1,-0.2 0,-0.3l3.7,-14.6l-22.9,7.4l-4.5,2.1l-3.5,-1.3l0.5,-4.5l-6.6,-9c-0.3,-0.4 -0.1,-1 0.3,-1.2c0.1,0 0.1,-0.1 0.2,-0.1l6.9,-1.9c0.3,-0.1 0.7,0 0.9,0.2l5.8,6.2l20.3,-7.3l-13,-11.1c-0.2,-0.2 -0.3,-0.5 -0.2,-0.8c0.1,-0.3 0.3,-0.5 0.6,-0.6l7.3,-2.4c0.2,-0.1 0.5,-0.1 0.7,0.1l21,8.7l9.4,-2.5c12.8,-3.2 18.1,-0.9 19,1.8c1.3,4 -8.2,7.3 -16.5,10.2c0,0 -4.8,1.7 -6.9,2.4c0,0 -11.3,15.3 -11.4,15.5c-0.3,0.2 -0.5,0.4 -0.7,0.5z"
          class="st0" id="svg_11" />
        <line stroke-miterlimit="10" stroke-width="3" stroke="#04246A" fill="none" y2="-1902.37861" x2="-15.40075"
          y1="-1905.67861" x1="-5.30075" class="st0" id="svg_10" />
      </g>
      <g transform="translate(880.146 8051)" id="svg_4">
        <path fill="#04246A"
          d="m-47.60075,-1906.17861l-3.5,0l0,3.5l-1.5,0l0,-3.5l-3.5,0l0,-1.5l3.5,0l0,-3.5l1.5,0l0,3.5l3.5,0l0,1.5z"
          class="st1" id="svg_8" />
        <path fill="#04246A"
          d="m-38.20075,-1912.87861c0.9,1.3 1.4,2.9 1.3,4.5c0,1.2 -0.2,2.4 -0.6,3.5c-0.3,0.9 -1,1.7 -1.7,2.3c-0.8,0.5 -1.7,0.8 -2.7,0.8c-0.7,0 -1.5,-0.1 -2.2,-0.4c-0.7,-0.2 -1.3,-0.6 -1.8,-1.1l0.8,-1.7c0.9,0.8 2,1.2 3.1,1.3c0.9,0 1.7,-0.4 2.1,-1.2c0.6,-1 0.8,-2.2 0.8,-3.4c-0.3,0.5 -0.7,1 -1.2,1.3c-0.6,0.3 -1.2,0.5 -1.8,0.5c-0.7,0 -1.4,-0.2 -2,-0.5c-0.6,-0.3 -1,-0.8 -1.3,-1.4c-0.3,-0.6 -0.5,-1.3 -0.5,-2.1c0,-0.7 0.2,-1.5 0.5,-2.1c0.3,-0.6 0.9,-1.1 1.5,-1.5c0.7,-0.4 1.4,-0.5 2.1,-0.5c1.4,0 2.8,0.6 3.6,1.7zm-1.9,4.1c0.4,-0.4 0.6,-1 0.6,-1.6c0,-0.6 -0.2,-1.2 -0.6,-1.6c-0.4,-0.4 -1,-0.6 -1.6,-0.6c-0.6,0 -1.1,0.2 -1.5,0.6c-0.4,0.5 -0.6,1 -0.6,1.6c0,0.6 0.2,1.2 0.6,1.6c0.4,0.4 1,0.6 1.5,0.6c0.6,0 1.2,-0.2 1.6,-0.6l0,0z"
          class="st1" id="svg_7" />
        <path fill="#04246A"
          d="m-28.10075,-1909.37861c0.6,0.3 1,0.8 1.3,1.4c0.7,1.3 0.6,2.9 0,4.2c-0.3,0.6 -0.9,1.1 -1.5,1.5c-0.7,0.4 -1.4,0.5 -2.1,0.5c-1.4,0.1 -2.7,-0.5 -3.6,-1.6c-0.9,-1.3 -1.4,-2.9 -1.3,-4.5c0,-1.2 0.2,-2.4 0.6,-3.5c0.3,-0.9 1,-1.7 1.7,-2.3c0.8,-0.5 1.7,-0.8 2.7,-0.8c0.7,0 1.5,0.1 2.2,0.4c0.7,0.2 1.3,0.6 1.8,1.1l-0.8,1.7c-0.9,-0.8 -2,-1.2 -3.1,-1.3c-0.9,0 -1.7,0.4 -2.1,1.2c-0.6,1 -0.8,2.2 -0.8,3.3c0.3,-0.5 0.7,-1 1.2,-1.2c0.6,-0.3 1.2,-0.5 1.8,-0.4c0.7,-0.2 1.4,0 2,0.3zm-0.9,5.2c0.4,-0.5 0.6,-1 0.6,-1.7c0,-0.6 -0.2,-1.2 -0.6,-1.6c-0.4,-0.4 -1,-0.6 -1.5,-0.6c-0.6,0 -1.2,0.2 -1.6,0.6c-0.4,0.4 -0.6,1 -0.6,1.6c0,0.6 0.2,1.2 0.6,1.6c0.4,0.4 1,0.6 1.6,0.6c0.5,0.1 1.1,-0.1 1.5,-0.5z"
          class="st1" id="svg_6" />
        <path fill="#04246A"
          d="m-12.40075,-1909.87861c0.6,0.8 0.8,1.7 0.8,2.7l0,5.3l-2.2,0l0,-5.1c0,-0.5 -0.1,-1 -0.4,-1.5c-0.3,-0.3 -0.7,-0.5 -1.2,-0.5c-0.6,0 -1.1,0.2 -1.5,0.6c-0.4,0.4 -0.6,1 -0.6,1.6l0,4.9l-2.2,0l0,-12.4l2.2,0l0,5c0.3,-0.5 0.7,-0.8 1.2,-1c0.5,-0.2 1.1,-0.4 1.6,-0.4c0.9,-0.1 1.7,0.2 2.3,0.8z"
          class="st1" id="svg_5" />
      </g>
    </g>
  </g>
</svg>
