<svg width="124" height="45" xmlns="http://www.w3.org/2000/svg">
  <g>
    <g transform="translate(-1055 -5997.92)" id="svg_25">
      <g transform="translate(1113.5 8021.16)" id="svg_33">
        <path stroke-miterlimit="10" stroke-width="3" stroke="#04246A" fill="none"
          d="m-12.9158,-1984.21211l-9.3,3c-0.5,0.2 -0.9,-0.1 -1.1,-0.5c0,-0.1 -0.1,-0.2 0,-0.3l3.7,-14.6l-22.9,7.4l-4.5,2.1l-3.5,-1.3l0.5,-4.5l-6.6,-9c-0.3,-0.4 -0.1,-1 0.3,-1.2c0.1,0 0.1,-0.1 0.2,-0.1l6.9,-2c0.3,-0.1 0.7,0 0.9,0.2l5.8,6.2l20.3,-7.3l-13,-11.1c-0.2,-0.2 -0.3,-0.5 -0.2,-0.8c0.1,-0.3 0.3,-0.5 0.6,-0.6l7.3,-2.4c0.2,-0.1 0.5,-0.1 0.7,0.1l21,8.7l9.4,-2.5c12.8,-3.2 18.1,-0.9 19,1.8c1.3,4 -8.2,7.3 -16.5,10.2c0,0 -4.8,1.7 -6.9,2.4c0,0 -11.3,15.3 -11.4,15.5c-0.2,0.3 -0.4,0.5 -0.7,0.6z"
          class="st0" id="svg_35" />
        <line stroke-miterlimit="10" stroke-width="3" stroke="#04246A" fill="none" y2="-2008.81211" x2="-16.0158"
          y1="-2012.11211" x1="-5.9158" class="st0" id="svg_34" />
      </g>
      <g transform="translate(1172.18 8050.98)" id="svg_26">
        <path fill="#04246A"
          d="m-48.2158,-2010.21211l0,1.8l-8.3,0l0,-1.7l4.2,-4.5c0.4,-0.4 0.8,-0.9 1.1,-1.5c0.2,-0.4 0.3,-0.9 0.3,-1.3c0,-0.5 -0.1,-0.9 -0.5,-1.3c-0.4,-0.3 -0.9,-0.5 -1.4,-0.4c-1.2,0 -2.4,0.5 -3.4,1.3l-0.8,-1.7c0.6,-0.5 1.2,-0.8 1.9,-1c0.7,-0.3 1.5,-0.4 2.3,-0.4c1.1,-0.1 2.1,0.3 3,0.9c0.7,0.6 1.1,1.5 1.1,2.5c0,0.7 -0.2,1.4 -0.5,2c-0.4,0.8 -0.9,1.5 -1.5,2.1l-3,3.2l5.5,0z"
          class="st1" id="svg_32" />
        <path fill="#04246A"
          d="m-37.1158,-2010.81211l-1.7,0l0,2.4l-2.2,0l0,-2.4l-5.4,0l0,-1.7l5.8,-8.3l1.8,0l0,8.2l1.7,0l0,1.8zm-4,-1.7l0,-4.7l-3.3,4.7l3.3,0z"
          class="st1" id="svg_31" />
        <path fill="#04246A" d="m-35.5158,-2013.91211l5.2,0l0,1.7l-5.2,0l0,-1.7z" class="st1" id="svg_30" />
        <path fill="#04246A"
          d="m-19.0158,-2010.81211l-1.7,0l0,2.4l-2.2,0l0,-2.4l-5.4,0l0,-1.7l5.8,-8.3l1.8,0l0,8.2l1.7,0l0,1.8zm-3.9,-1.7l0,-4.7l-3.3,4.7l3.3,0z"
          class="st1" id="svg_29" />
        <path fill="#04246A"
          d="m-9.2158,-2013.61211c0.4,0.6 0.6,1.2 0.6,1.9c0,1 -0.4,2 -1.2,2.6c-2.1,1.2 -4.7,1.2 -6.8,0c-0.8,-0.6 -1.3,-1.6 -1.2,-2.6c0,-0.7 0.2,-1.4 0.6,-1.9c0.4,-0.5 1,-0.9 1.7,-1.1c-0.6,-0.2 -1.1,-0.6 -1.5,-1.1c-0.4,-0.5 -0.5,-1.1 -0.5,-1.7c0,-1 0.4,-1.9 1.2,-2.4c2,-1.2 4.4,-1.2 6.4,0c0.8,0.6 1.2,1.5 1.2,2.4c0,0.6 -0.2,1.3 -0.5,1.8c-0.4,0.5 -0.9,0.9 -1.4,1.1c0.4,0 1,0.4 1.4,1zm-1.5,1.7c0,-1.3 -0.8,-1.9 -2.5,-1.9c-1.7,0 -2.5,0.6 -2.5,1.9c0,1.3 0.8,1.9 2.5,1.9c1.7,0 2.5,-0.6 2.5,-1.9l0,0zm-4.7,-5.4c0,0.5 0.2,1 0.6,1.4c1,0.6 2.3,0.6 3.3,0c0.4,-0.3 0.6,-0.8 0.6,-1.4c0,-1.2 -0.7,-1.8 -2.2,-1.8c-1.6,0 -2.3,0.6 -2.3,1.8l0,0z"
          class="st1" id="svg_28" />
        <path fill="#04246A"
          d="m5.2842,-2016.31211c0.6,0.8 0.8,1.7 0.8,2.7l0,5.3l-2.2,0l0,-5.2c0,-0.5 -0.1,-1 -0.4,-1.5c-0.3,-0.3 -0.7,-0.5 -1.2,-0.5c-0.6,0 -1.1,0.2 -1.5,0.6c-0.4,0.4 -0.6,1 -0.6,1.6l0,4.9l-2.2,0l0,-12.4l2.2,0l0,5c0.3,-0.5 0.7,-0.8 1.2,-1c0.5,-0.2 1.1,-0.4 1.6,-0.4c0.8,0 1.7,0.3 2.3,0.9z"
          class="st1" id="svg_27" />
      </g>
    </g>
  </g>
</svg>
